<?xml version="1.0" encoding="utf-8"?>
<svg version="1.1" id="layer" xmlns="http://www.w3.org/2000/svg" xmlns:xlink="http://www.w3.org/1999/xlink" x="0px" y="0px"
	 viewBox="0 0 183.5 114.9" enable-background="new 0 0 183.5 114.9" xml:space="preserve">
<g>
	<path fill="#FFFFFF11" d="M37.9,17.6c-1.1,0-1.8,0.7-2.1,2c0,0-0.3,2-0.6,5.3c-0.3,3-0.6,7.9-0.6,13.6c0,13,1.7,31.4,9.8,45.5
		c6.2,10.8,14.9,16.8,24.7,17.2c-3.8-2.9-8.3-7.7-10.7-15.2C56.1,78.9,55,70.4,55,61c0-13.1,2.2-24.3,2.9-27.5c0-0.1,0-0.1,0-0.2
		c0.4-1.8,1.4-3.3,2.9-4c-10-6.4-18.5-10.1-20.2-10.9c-1-0.5-1.5-0.7-1.5-0.7l0,0l0,0C38.6,17.7,38.2,17.6,37.9,17.6"/>
	<path fill="#FFFFFF11" d="M122.7,32.7c-0.2,0-0.5,0.1-0.8,0.4c0,0-0.3,0.2-0.9,0.7c-0.6,0.5-1.4,1.1-2.5,2.1c-1.5,1.3-4.5,4.1-8.1,8
		c-5.6,6.3-13.1,16.1-16.6,27.5c-2,6.7-3.1,12.4-3,17.1c0,3.5,0.5,6.5,1.7,8.9c1.1,2.3,2.7,3.9,5,5c1,0.4,2.2,0.7,3.7,0.7h0.1
		c6.8,0,18.2-5.7,22.1-18.3c2.1-6.8,3.2-14.9,3.2-23.9c0-11.2-1.6-21-2.3-24.7c-0.3-1.4-0.4-2.1-0.4-2.1
		C123.6,33.5,123.3,32.7,122.7,32.7"/>
	<path fill="#FFFFFF11" d="M62.8,32.7c-0.6,0-1,0.8-1.2,1.5c0,0.1-0.2,0.8-0.4,2.1c-0.2,0.9-0.6,2.9-1,5.8c-0.6,4.4-1.4,11.3-1.4,18.9
		c0,9.2,1.1,17.2,3.2,23.8c4,12.7,15.6,18.4,22.6,18.4h0.1c1.5,0,2.8-0.2,3.8-0.7c0.6-0.2,1.1-0.5,1.7-0.9c-0.5-0.7-1-1.5-1.4-2.3
		c-1.4-2.8-2-6.3-2.1-10.5c0-5.3,1.1-11.4,3.3-18.3c0.2-0.6,0.4-1.3,0.6-1.9c0.1-0.3,0.2-0.5,0.3-0.7C83.5,49.4,66.4,35.5,64.5,34
		c-0.6-0.5-0.9-0.7-0.9-0.7C63.3,32.8,63,32.7,62.8,32.7"/>
	<path fill="#FFFFFF11" d="M92.7,2.5c-0.4,0-0.8,0.3-1.3,1c0,0-0.4,0.5-0.9,1.5c-0.9,1.4-1.7,2.8-2.5,4.2c-1.8,3.3-4.6,8.5-7.5,15.1
		c-2,4.5-3.8,9.1-5.3,13.8c5.5,5.5,13,14.1,17.9,24.6c3.8-8.2,9.6-16.4,17.2-24.3C105.1,22.6,97.8,9.7,94.9,4.9
		c-0.6-1-0.9-1.5-0.9-1.5C93.3,2.6,92.8,2.5,92.7,2.5"/>
	<path fill="#FFFFFF11" d="M147.4,17.6c-0.2,0-0.6,0-1,0.2l0,0l0,0c0,0-0.5,0.2-1.5,0.7c-1,0.4-2.2,1-3.8,1.7l-0.6,0.3
		c-4.9,2.4-9.7,5-14.2,7.9c-0.5,0.3-1,0.6-1.5,1c1.4,0.7,2.5,2.2,2.9,4c0,0,0,0.1,0,0.2c0.7,3.1,2.8,14.4,2.8,27.5
		c0,9.4-1.1,17.9-3.3,25c-2.4,7.5-6.8,12.4-10.5,15.2c9.6-0.5,18.2-6.5,24.4-17.2c8.1-14.1,9.8-32.6,9.8-45.5
		c0-4.6-0.2-9.2-0.6-13.7c-0.3-3.3-0.6-5.3-0.6-5.3C149.2,18.3,148.5,17.6,147.4,17.6"/>
	<path fill="#FFFFFF11" d="M120.7,6.6c-0.1,0-0.3,0-0.4,0l0,0l0,0c-0.3,0-0.6,0.2-0.9,0.4l0,0l0,0c0,0-2.1,1.3-5.4,3.6
		c-1.8,1.3-4.7,3.4-8.2,6.3c2.6,5.3,4.8,10.7,6.8,16.1c4.2-3.3,8.8-6.5,14-9.6c-1.5-7.5-3.2-13.1-3.8-15.1c0-0.1,0-0.1-0.1-0.2
		C122.3,7.2,121.6,6.6,120.7,6.6"/>
	<path fill="#FFFFFF11" d="M64.6,6.6c-0.9,0-1.6,0.5-2,1.6c0,0,0,0.1-0.1,0.2c-0.7,2.1-2.4,7.6-3.8,15.1c5.2,3.1,9.8,6.3,14,9.6
		c1.9-5.2,4.2-10.6,6.8-16.1c-2.8-2.3-5.5-4.4-8.2-6.3c-3.3-2.3-5.4-3.6-5.4-3.6l0,0l0,0c-0.3-0.2-0.6-0.4-0.9-0.4l0,0l0,0
		C64.8,6.6,64.7,6.6,64.6,6.6"/>
	<path fill="#FFFFFF11" d="M17.5,41.7c-2.8,0-4.5,0.1-4.5,0.1c-1.1,0.1-2.1,0.7-2.8,1.7c-0.4,0.6-0.6,1.3-0.6,2.1
		c0.2,1.9,1.5,9,9.9,19.6c4.3-2.1,8.6-4,12.7-5.6c-0.9-5.3-1.4-11.1-1.5-17.2c-5.2-0.5-9.2-0.6-11.7-0.7
		C18.5,41.7,18,41.7,17.5,41.7"/>
	<path fill="#FFFFFF11" d="M167.8,41.7c-0.5,0-1,0-1.5,0c-2.5,0-6.6,0.2-11.7,0.7c-0.1,5.9-0.7,11.7-1.5,17.2
		c4.2,1.6,8.4,3.5,12.8,5.6c8.4-10.6,9.7-17.7,9.9-19.6c0.1-0.7-0.3-1.7-0.6-2.1c-0.7-1-1.7-1.6-2.8-1.7
		C172.3,41.7,170.6,41.7,167.8,41.7"/>
	<path fill="#FFFFFF11" d="M152.3,63.4c-1.7,8.7-4.4,16.3-8,22.6c-3.8,6.6-8.4,11.6-14,14.9c40.1-2.2,51.4-15.1,52.6-16.6l0,0
		c0.4-0.6,0.6-1.3,0.6-2c0-1.1-0.5-2.3-1.4-2.9c0,0-0.5-0.3-1.3-0.9l0,0l0,0c-0.6-0.5-1.6-1.1-2.7-1.9c-0.3-0.2-0.6-0.4-1-0.6
		c-2.9-1.8-7.5-4.6-13.1-7.5C160,66.6,156.1,64.9,152.3,63.4"/>
	<path fill="#FFFFFF11" d="M33,63.4C19.5,68.5,8.6,75.6,4.5,78.5c-0.8,0.6-1.3,0.9-1.3,0.9c-0.9,0.6-1.4,1.8-1.4,2.9
		c0,0.7,0.2,1.4,0.6,2l0.1,0.1c0.1,0.1,0.2,0.2,0.3,0.3c0,0.1,0.1,0.1,0.2,0.2c0.3,0.3,0.9,1,1.9,1.8c1.7,1.4,4.7,3.6,9.6,5.8
		c10.1,4.6,24.1,7.5,40.6,8.4c-5.5-3.3-10.3-8.4-14-14.9C37.4,79.7,34.7,72.1,33,63.4"/>
	<path fill="#FFFFFF11" d="M147.3,103.8c-2.1,0-5.1,0.4-9.7,1.1c-0.7,0.1-1.4,0.2-2.1,0.3c-2,0.3-4.5,0.4-7.7,0.4c-2,0-4.1,0-6.2-0.1
		h-0.2c-2.1,0-4.4-0.1-6.8-0.1c-4.9,0-11.3,0.2-16.9,1.8c-0.3,0.1-0.5,0.4-0.5,0.6s0.4,0.2,0.7,0.2c0.1,0,0.2,0,0.3,0
		c2.2-0.2,4.4-0.3,6.4-0.3c7.3,0,12.3,1.3,17.1,2.5c4.5,1.1,8.8,2.2,14.8,2.2c6.3,0,11.4-1.3,13.4-3.6c0.7-0.8,1-1.6,0.9-2.5
		C150.6,104.6,150,103.8,147.3,103.8"/>
	<path fill="#FFFFFF11" d="M38,103.8c-2.8,0-3.3,0.8-3.5,2.5c-0.1,0.9,0.2,1.7,0.9,2.4c2,2.2,7.2,3.6,13.5,3.6c6,0,10.2-1.1,14.8-2.2
		c4.8-1.2,9.8-2.5,17.1-2.5c2,0,4.2,0.1,6.4,0.3c0.1,0,0.2,0,0.3,0c0.3,0,0.6-0.1,0.7-0.2c0-0.2-0.2-0.5-0.5-0.6
		c-5.6-1.6-11.9-1.8-16.8-1.8l0,0c-2.4,0-4.7,0-6.8,0.1h-0.2c-2.2,0-4.3,0.1-6.2,0.1c-3.2,0-5.7-0.1-7.7-0.4
		c-0.8-0.1-1.5-0.2-2.2-0.3C43.1,104.3,40,103.8,38,103.8"/>
</g>
</svg>
