<?xml version="1.0" encoding="utf-8"?>
<svg version="1.1" id="Layer_1" xmlns="http://www.w3.org/2000/svg" xmlns:xlink="http://www.w3.org/1999/xlink" x="0px" y="0px"
	 viewBox="0 0 963 380.4" style="enable-background:new 0 0 963 380.4;" xml:space="preserve">
<path fill-rule="evenodd" clip-rule="evenodd" fill="#FFFFFF11" d="M360.8,339L268.5,55.1C256.1,12.4,234,0,201,0H30.1c13.8,5.5,22,40,22,40l82.7,285.3
	c9.6,35.8,38.6,55.1,73,55.1h180.5C374.6,377.6,360.8,339,360.8,339z M632.3,339l92.3-283.9C737,12.4,759.1,0,792.1,0H963
	c-13.8,5.5-22,40-22,40l-82.7,285.3c-9.6,35.8-38.6,55.1-73,55.1H604.7C618.5,377.6,632.3,339,632.3,339z M396.6,380.3h199.8V1.4
	H396.6V380.3L396.6,380.3z"/>
</svg>
